<svg xmlns="http://www.w3.org/2000/svg" width="256" height="256" viewBox="0 0 256 256" role="img" aria-label="Daffy FX">
  <defs>
    <linearGradient id="gold" x1="40" y1="40" x2="216" y2="216" gradientUnits="userSpaceOnUse">
      <stop offset="0" stop-color="#F6D365"/>
      <stop offset="0.55" stop-color="#E7B84A"/>
      <stop offset="1" stop-color="#B8860B"/>
    </linearGradient>
    <radialGradient id="glow" cx="55%" cy="35%" r="70%">
      <stop offset="0" stop-color="#F6D365" stop-opacity="0.25"/>
      <stop offset="1" stop-color="#0B0F14" stop-opacity="0"/>
    </radialGradient>
  </defs>

  <rect width="256" height="256" rx="56" fill="#0B0F14"/>
  <rect width="256" height="256" rx="56" fill="url(#glow)"/>

  <!-- Stylized "DF" monogram -->
  <path
    fill="url(#gold)"
    d="M76 72h72c30 0 50 18 50 44 0 21-12 37-32 42 18 5 28 20 28 38 0 26-20 44-50 44H76V72zm66 66c13 0 22-8 22-20s-9-20-22-20h-32v40h32zm4 78c13 0 22-8 22-20s-9-20-22-20h-36v40h36z"
  />
  <path
    fill="url(#gold)"
    d="M70 72h18v168H70z"
    opacity="0.9"
  />

  <!-- Small accent dot -->
  <circle cx="196" cy="78" r="10" fill="url(#gold)"/>
</svg>

